<svg width="180" height="35" viewBox="0 0 180 35" fill="none" xmlns="http://www.w3.org/2000/svg">
<path d="M53.2276 12.9179V7.71045C53.2276 5.35235 52.1467 4.07504 49.9852 4.07504H44.4829V25.1015H47.3323V16.5533H49.0026L50.8694 25.1015H53.5223L51.5572 16.3568C52.7363 15.9638 53.2276 14.7848 53.2276 12.9179V12.9179ZM50.4764 12.8197C50.4764 13.8022 50.0834 14.3918 49.1991 14.3918H47.3323V6.82617H49.1991C50.0834 6.82617 50.4764 7.31744 50.4764 8.39824V12.8197V12.8197Z" fill="white"/>
<path d="M61.4823 4.17316H58.8294C56.5696 4.17316 55.4888 5.35221 55.4888 7.80857V21.6624C55.4888 24.0205 56.6678 25.1996 58.9277 25.1996H61.5805C63.8404 25.1996 65.0194 24.0205 65.0194 21.6624V7.80857C64.8229 5.35221 63.7421 4.17316 61.4823 4.17316ZM62.0718 21.4659C62.0718 22.252 61.6788 22.645 60.991 22.645H59.5172C58.6329 22.645 58.2399 22.252 58.2399 21.4659V7.90682C58.2399 7.12079 58.6329 6.72777 59.5172 6.72777H60.7945C61.6788 6.72777 62.0718 7.12079 62.0718 7.90682V21.4659Z" fill="white"/>
<path d="M72.3885 4.17316H70.6199C68.3601 4.17316 67.2793 5.35221 67.2793 7.71031V21.5642C67.2793 23.9223 68.3601 25.1013 70.6199 25.1013H72.3885C74.6484 25.1013 75.7292 23.9223 75.7292 21.5642V20.1886H72.8798V21.3677C72.8798 22.1537 72.4868 22.5467 71.799 22.5467H71.1112C70.3252 22.5467 70.0304 22.1537 70.0304 21.3677V7.90682C70.0304 7.12079 70.4234 6.72777 71.1112 6.72777H71.7007C72.585 6.72777 72.9781 7.12079 72.9781 7.90682V10.0684H75.8274V7.71031C75.7292 5.35221 74.6484 4.17316 72.3885 4.17316Z" fill="white"/>
<path d="M80.8386 4.17316H77.9893V25.1996H80.8386V4.17316Z" fill="white"/>
<path d="M80.937 14.6864V14.8829L84.4742 25.1996H87.2253L83.4916 14.5881L86.4393 4.17316H83.8846L80.937 14.6864Z" fill="white"/>
<path d="M91.6461 15.6689H95.3798V13.1143H91.6461V6.72777H95.7728V4.17316H88.895V25.1996H95.7728V22.645H91.6461V15.6689Z" fill="white"/>
<path d="M96.853 4.17316V6.72777H99.5059V25.1996H102.355V6.72777H105.008V4.17316H96.853Z" fill="white"/>
<path d="M109.43 4.17316H106.581V25.1996H109.43V4.17316Z" fill="white"/>
<path d="M114.834 11.444L117.88 20.9747V25.1996H120.729V4.17316H117.88V14.2934L114.834 4.17316H112.083V25.1996H114.834V11.444Z" fill="white"/>
<path d="M122.302 6.72777H124.955V25.1996H127.804V6.72777H130.457V4.17316H122.302V6.72777Z" fill="white"/>
<path d="M134.879 15.6689H138.612V13.1143H134.879V6.72777H139.104V4.17316H132.127V25.1996H139.104V22.645H134.879V15.6689Z" fill="white"/>
<path d="M149.813 12.9179V7.71045C149.813 5.35235 148.732 4.07504 146.57 4.07504H141.068V25.1015H143.917V16.5533H145.588L147.454 25.1015H150.107L148.142 16.3568C149.223 15.9638 149.813 14.7848 149.813 12.9179V12.9179ZM146.963 12.8197C146.963 13.8022 146.57 14.3918 145.686 14.3918H143.819V6.82617H145.686C146.57 6.82617 146.963 7.31744 146.963 8.39824V12.8197Z" fill="white"/>
<path d="M155.021 11.444L157.969 20.9747V25.1996H160.818V4.17316H157.969V14.2934L155.021 4.17316H152.172V25.1996H155.021V11.444Z" fill="white"/>
<path d="M166.222 15.6689H169.955V13.1143H166.222V6.72777H170.447V4.17316H163.471V25.1996H170.447V22.645H166.222V15.6689Z" fill="white"/>
<path d="M171.429 4.17316V6.72777H174.082V25.1996H176.931V6.72777H179.584V4.17316H171.429Z" fill="white"/>
<path d="M32.7923 9.67537C34.6592 14.7846 33.5784 20.7781 29.4517 24.9048C27.0936 27.2629 24.146 28.6385 21.1001 29.0315C20.314 30.1123 19.6263 31.0948 18.9385 31.8809C23.0652 31.7826 27.0936 30.2105 30.2377 27.0664C35.347 21.9572 36.4278 14.3916 33.4801 8.2998C33.2836 8.69282 33.0871 9.18409 32.7923 9.67537V9.67537Z" fill="white"/>
<path d="M6.06715 13.8022C6.46017 10.7563 7.83573 7.9069 10.1938 5.64705C14.2223 1.52037 20.2158 0.439569 25.325 2.20815C25.8163 2.01164 26.2093 1.71688 26.7006 1.52037C20.6088 -1.32901 13.1415 -0.149958 8.03224 4.86102C4.98635 7.9069 3.31603 11.9353 3.21777 15.9638C4.00381 15.276 4.98635 14.5882 6.06715 13.8022Z" fill="white"/>
<path d="M31.3648 3.60958C31.4415 3.68634 32.1882 3.06444 33.0326 2.22053C33.877 1.37663 34.4993 0.630274 34.4226 0.553511C34.3459 0.476749 33.5992 1.09864 32.7548 1.94255C31.9104 2.78646 31.2881 3.53281 31.3648 3.60958Z" fill="white"/>
<path d="M34.4622 0.537855C34.2657 0.4396 24.1455 5.15581 15.4008 10.7563C4.69109 17.6341 0.171388 22.1538 0.171388 22.1538C-0.123375 22.4486 -0.0251205 22.7433 0.367897 22.7433C0.367897 22.7433 8.81777 23.0381 10.3898 24.6102C11.9619 26.1822 12.2567 34.6321 12.2567 34.6321C12.2567 35.0251 12.5514 35.1234 12.8462 34.8286C12.8462 34.8286 17.3659 30.3089 24.1455 19.5992C29.8442 10.8546 34.6587 0.734363 34.4622 0.537855Z" fill="white"/>
</svg>
