<svg width="160" height="50" fill="none" xmlns="http://www.w3.org/2000/svg"><g clip-path="url(#clip0)" fill="#fff"><path d="M101.989 3.114h-.072V3.03H58.041v.083h-.051v43.855h.062v.062h43.875v-.062h.062V3.114zm-2.814 41.113H60.794V5.835h38.391v38.392h-.01z"/><path d="M65.885 25.248l.372-5.691h7.917v2.018h-5.775l-.186 2.349.124.02c.61-.538.952-.63 1.987-.63h1.428c1.045 0 1.594.175 2.018.6.549.548.755 1.407.755 2.845 0 1.904-.217 2.567-.765 3.146-.373.393-.952.61-1.925.61h-3.353c-1.004 0-1.687-.175-2.07-.527-.496-.518-.724-1.232-.724-2.99l2.453-.021c.02.89.145 1.23.269 1.345.124.134.341.186.848.186h1.708c.424 0 .62-.062.745-.176.145-.145.269-.466.269-1.438 0-.973-.124-1.284-.27-1.428-.123-.114-.31-.176-.744-.176h-1.097c-.735 0-1.19.155-1.863.58l-2.121-.622zM81.014 19.557c1.21 0 1.78.145 2.256.58.642.579 1.17 1.717 1.17 4.894 0 3.156-.528 4.305-1.17 4.895-.466.424-1.045.58-2.256.58h-2.546c-1.21 0-1.77-.156-2.235-.58-.652-.59-1.17-1.739-1.17-4.895 0-3.177.518-4.315 1.17-4.895.466-.434 1.035-.58 2.235-.58h2.546zm-1.987 2.018c-.58 0-.766.062-.89.176-.176.155-.424.58-.424 3.29 0 2.712.248 3.125.424 3.27.124.125.31.176.89.176h1.428c.59 0 .766-.051.91-.176.177-.145.425-.558.425-3.27 0-2.71-.248-3.125-.424-3.29-.145-.114-.31-.176-.91-.176h-1.429zM90.855 19.557c1.21 0 1.78.145 2.256.58.641.579 1.17 1.717 1.17 4.894 0 3.156-.529 4.305-1.17 4.895-.466.424-1.045.58-2.256.58H88.31c-1.21 0-1.77-.156-2.235-.58-.652-.59-1.17-1.739-1.17-4.895 0-3.177.518-4.315 1.17-4.895.466-.434 1.035-.58 2.236-.58h2.545zm-1.987 2.018c-.58 0-.765.062-.89.176-.176.155-.424.58-.424 3.29 0 2.712.248 3.125.424 3.27.125.125.31.176.89.176h1.418c.59 0 .766-.051.9-.176.176-.145.424-.558.424-3.27 0-2.71-.248-3.125-.424-3.29-.134-.114-.31-.176-.9-.176h-1.418z"/></g><defs><clipPath id="clip0"><path fill="#fff" d="M58 3h44v44H58z"/></clipPath></defs></svg>