<svg width="160" height="50" fill="none" xmlns="http://www.w3.org/2000/svg"><path d="M52.061 21.048v-4.05c0-1.835-.833-2.828-2.5-2.828h-4.245v16.355h2.198v-6.65h1.288l1.44 6.65h2.047l-1.516-6.802c.91-.306 1.288-1.223 1.288-2.675zm-2.122-.076c0 .764-.303 1.222-.985 1.222h-1.44V16.31h1.44c.682 0 .985.382.985 1.223v3.438zM58.43 14.246h-2.047c-1.744 0-2.577.917-2.577 2.828V27.85c0 1.834.91 2.751 2.653 2.751h2.046c1.743 0 2.653-.917 2.653-2.751V17.074c-.152-1.91-.986-2.828-2.729-2.828zm.454 13.45c0 .612-.303.918-.834.918h-1.137c-.682 0-.985-.306-.985-.917V17.15c0-.611.303-.917.985-.917h.986c.682 0 .985.306.985.917v10.547zM66.843 14.246h-1.365c-1.743 0-2.577.917-2.577 2.751v10.776c0 1.834.834 2.751 2.577 2.751h1.365c1.743 0 2.577-.917 2.577-2.75v-1.07h-2.198v.916c0 .612-.304.917-.834.917h-.53c-.607 0-.835-.305-.835-.917V17.15c0-.611.304-.917.834-.917h.455c.682 0 .985.306.985.917v1.681h2.199v-1.834c-.076-1.834-.91-2.75-2.653-2.75zM73.361 14.246h-2.198v16.355h2.198V14.246zM73.437 22.424v.152l2.729 8.025h2.122l-2.88-8.254 2.274-8.1H75.71l-2.274 8.177zM81.699 23.188h2.88V21.2h-2.88v-4.968h3.183v-1.987h-5.306v16.355h5.306v-1.987H81.7v-5.426zM85.716 14.246v1.987h2.046v14.368h2.198V16.233h2.047v-1.987h-6.291zM95.418 14.246H93.22v16.355h2.198V14.246zM99.586 19.901l2.35 7.414V30.6h2.198V14.246h-2.198v7.872l-2.35-7.872h-2.122v16.355h2.122v-10.7zM105.347 16.233h2.047v14.368h2.198V16.233h2.046v-1.987h-6.291v1.987zM115.049 23.188h2.88V21.2h-2.88v-4.968h3.259v-1.987h-5.381v16.355h5.381v-1.987h-3.259v-5.426zM126.57 21.048v-4.05c0-1.835-.834-2.828-2.502-2.828h-4.244v16.355h2.198v-6.65h1.289l1.44 6.65h2.046l-1.516-6.802c.834-.306 1.289-1.223 1.289-2.675zm-2.198-.076c0 .764-.304 1.222-.986 1.222h-1.44V16.31h1.44c.682 0 .986.382.986 1.223v3.438zM130.588 19.901l2.273 7.414V30.6h2.199V14.246h-2.199v7.872l-2.273-7.872h-2.199v16.355h2.199v-10.7zM139.228 23.188h2.881V21.2h-2.881v-4.968h3.26v-1.987h-5.382v16.355h5.382v-1.987h-3.26v-5.426zM143.245 14.246v1.987h2.047v14.368h2.198V16.233h2.046v-1.987h-6.291zM36.297 18.526c1.44 3.974.607 8.636-2.577 11.846a11.058 11.058 0 01-6.442 3.21c-.607.84-1.137 1.605-1.668 2.216 3.184-.077 6.291-1.3 8.717-3.745 3.941-3.974 4.775-9.859 2.5-14.597-.15.306-.302.688-.53 1.07zM15.68 21.736a10.61 10.61 0 013.184-6.344c3.108-3.21 7.731-4.05 11.673-2.675.379-.152.682-.382 1.06-.534-4.698-2.217-10.459-1.3-14.4 2.598-2.35 2.37-3.639 5.503-3.714 8.636.606-.535 1.364-1.07 2.198-1.681zM35.194 13.807c.06.06.636-.424 1.287-1.08.652-.657 1.133-1.237 1.073-1.297-.059-.06-.635.424-1.287 1.08-.652.657-1.132 1.237-1.073 1.297z" fill="#fff"/><path d="M37.585 11.418c-.151-.076-7.959 3.592-14.704 7.948-8.262 5.35-11.749 8.865-11.749 8.865-.227.23-.151.459.152.459 0 0 6.518.23 7.731 1.452 1.213 1.223 1.44 7.795 1.44 7.795 0 .306.228.383.455.153 0 0 3.487-3.515 8.716-11.846 4.397-6.801 8.11-14.673 7.96-14.826z" fill="#fff"/></svg>