<svg width="181" height="26" viewBox="0 0 181 26" fill="none" xmlns="http://www.w3.org/2000/svg">
<g clip-path="url(#clip0)">
<path d="M29.6729 15.585H27.8539V24.7881H24V0.277478H29.6729C33.5268 0.277478 35.4229 2.42023 35.4229 6.33575V9.52675C35.4229 13.4423 33.5268 15.585 29.6729 15.585ZM31.569 6.08911C31.569 4.33174 30.9061 3.77679 29.6729 3.77679H27.8539V12.0703H29.6729C30.9061 12.0703 31.569 11.5153 31.569 9.75798V6.08911V6.08911ZM36.8565 24.7881V0.277478H40.7104V21.2887H47.0615V24.7881H36.8565ZM53.7981 25.1118C50.0059 25.1118 48.0481 22.8765 48.0481 18.9456V0.277478H51.902V19.1922C51.902 20.9496 52.6727 21.5662 53.906 21.5662C55.1392 21.5662 55.91 20.9342 55.91 19.1922V0.277478H59.548V18.9456C59.5326 22.8611 57.5749 25.1118 53.7981 25.1118ZM67.4253 14.6447V11.13H72.8208V18.8993C72.8208 22.8149 70.863 25.0655 67.0708 25.0655C63.2786 25.0655 61.3208 22.8303 61.3208 18.8993V6.16618C61.3208 2.25066 63.2786 0 67.0708 0C70.863 0 72.8208 2.23524 72.8208 6.16618V8.54016H69.1827V5.91954C69.1827 4.16217 68.4119 3.49931 67.1787 3.49931C65.9455 3.49931 65.1747 4.16217 65.1747 5.91954V19.1614C65.1747 20.9188 65.9455 21.5354 67.1787 21.5354C68.4119 21.5354 69.1827 20.9034 69.1827 19.1614V14.6447H67.4253Z" fill="white"/>
<path d="M113.656 15.585H111.837V24.788H107.983V0.292877H113.656C117.51 0.292877 119.406 2.43563 119.406 6.35115V9.54215C119.406 13.4577 117.51 15.585 113.656 15.585ZM115.552 6.1045C115.552 4.34714 114.89 3.79219 113.656 3.79219H111.837V12.0857H113.656C114.89 12.0857 115.552 11.5307 115.552 9.77338V6.1045ZM120.84 24.8035V0.292877H124.694V21.3041H131.045V24.8035H120.84ZM142.005 24.8035L141.342 20.3638H136.61L135.947 24.8035H132.401L136.332 0.292877H141.974L145.905 24.8035H142.005ZM138.968 4.62462L137.103 17.0186H140.818L138.968 4.62462ZM152.349 16.6795V24.8035H148.495V16.6795L143.624 0.292877H147.647L150.592 11.4691L153.536 0.292877H157.22L152.349 16.6795Z" fill="white"/>
<path d="M81.8385 3.06766H77.5221L74.5161 21.8437H77.2292L77.7379 18.4369H81.3606L81.8693 21.8437H84.8445L81.8385 3.06766ZM79.5261 6.3974L80.9444 15.8933H78.1079L79.5261 6.3974Z" fill="white"/>
<path d="M92.1209 21.8283H95.1578V3.05228H92.5371V14.2901L89.5003 3.05228H85.7852V21.8283H88.452V8.23187L92.1209 21.8283Z" fill="white"/>
<path d="M96.8843 21.8437H101.555C104.515 21.8437 105.964 20.2096 105.964 17.2036V7.70771C105.964 4.7017 104.515 3.06766 101.555 3.06766H96.8843V21.8437ZM101.494 5.74995C102.434 5.74995 103.004 6.22783 103.004 7.56897V17.3424C103.004 18.6835 102.434 19.1614 101.494 19.1614H99.8286V5.74995H101.494Z" fill="white"/>
</g>
<defs>
<clipPath id="clip0">
<rect width="180.78" height="25.1118" fill="white" transform="translate(0.220215)"/>
</clipPath>
</defs>
</svg>
