<svg width="160" height="50" fill="none" xmlns="http://www.w3.org/2000/svg"><g clip-path="url(#clip0)"><path d="M100.571 45.365c-1.953-10.948-2.204-24.106-.746-39.107l.128-1.318h-5.047l-.096.918h-3.674l-.241.872c-.373 1.346-.636 2.8-.873 4.246-.002-.277-.004-.552-.004-.824 0-.232.001-.46.003-.687l.01-1.209h-3.479l.135-.917h-4.943l-.243.87a52.747 52.747 0 00-.428 1.63C79.828 5.666 76.716 3 72.67 3c-2.462 0-4.71 1.065-6.33 2.997-1.597 1.906-2.477 4.558-2.477 7.469 0 1.51.228 3.598.84 5.307l-.18-.124-.686.663c-2.331 2.254-3.999 5.766-4.578 9.637-.816 5.464.306 10.436 3.158 13.999 1.95 2.435 4.542 3.905 7.11 4.03 3.524.174 6.343-.743 8.38-2.726a9.898 9.898 0 001.756-2.332c.208 1.81.416 3.02.541 3.406l.304.93 1.61-.202c.906-.115 1.504-.19 2.17-.19h1.392l-.02-.127c.935.055 2.649.248 3.325.33 0 0 1.518.183 1.563.19l.02.188 1.135-.091c.762-.062 1.107-.03 1.545.011.315.03.673.063 1.194.063h.147l.01.071h1.018c.486 0 2.11.082 3.658.273l1.582.196-.286-1.603zm-22.835-26.23a.207.207 0 00.007-.018c.18-.4.294-.867.356-1.385l.037.001 1.528.035a90.453 90.453 0 00-.495 5.685 114.44 114.44 0 00-1.433-4.319z" fill="#fff"/><path d="M85.88 10.373s-3.248 17.498-.622 34.15c.95 0 3.869.353 3.869.353s-.748-4.08-.483-5.927c1.174 1.765 2.279.424 2.279.424s.345 2.61.69 5.785c1.433-.116 1.658.07 2.833.07-.329-3.404-1.192-9.03.345-36.266-2.556 15.1-2.487 28.717-5.596 28.223-4.766-4.022-3.315-26.812-3.315-26.812z" fill="#1E1E20"/><path d="M86.568 9.456h2.28s-.069 8.961.76 8.961c1.194-2.83 1.38-7.62 2.417-11.36h2.003s-2.613 28.505-4.49 27.73c-3.868-4.728-2.97-25.331-2.97-25.331zM95.963 6.14h2.695c-.967 9.949-1.796 25.119.76 39.442-1.66-.204-3.316-.282-3.8-.282-1.381-9.809-1.531-21.034.346-39.16zM85.325 8.54h-2.694c-2.1 7.488-2.57 16.134-2.445 23.134-.74-4.168-3.203-11.486-3.633-12.55.036-.09.133-.331.206-.495.25-.556.335-1.3.29-2.124-.165-3.05-2.088-7.224-3.882-7.224-1.485 0-1.865 1.216-1.865 2.716 0 .859.59 3.659 1.428 5.976l2.472 8.337c.913 3.038 1.435 6.401 1.327 8.054.23 3.01-1.336 8.044-5.746 8.044-4.523 0-6.604-6.03-6.457-10.255.133-3.857 1.107-6.36 1.931-7.713-.633 3.422-.918 5.848-.918 8.226 0 2.07.47 3.968 1.247 5.434h.001c.697 1.759 2.299 2.991 4.163 2.991 2.506 0 4.536-2.221 4.536-4.962.195-4.633-3.906-16.398-3.957-16.678-.587-1.79-1.142-5.08-1.142-6.254 0-2.822.702-4.833 3.154-4.833 1.812 0 4.18 2.575 4.904 8.184l2.095.047c.158-.785.242-1.609.242-2.457 0-5.482-2.926-9.925-7.828-9.925-4.323 0-7.633 3.785-7.633 9.267 0 1.83.341 4.053 1.023 5.525l1.377 2.571-.328.335-2.466-1.713c-2.392 2.314-3.76 5.85-4.222 8.945-1.491 9.972 4.108 16.403 9.163 16.652 8.503.42 10.302-6.045 10.65-10.252.258 5.083.776 8.72 1 9.406 1.33-.164 2.073-.283 2.971-.283-2.348-14.042-.69-24.273 1.036-36.127zM69.83 27.66s1.215 4.34 1.573 5.91c.149.658-.191 1.283-.703 1.383-.513.1-.992-.362-1.152-1.02-.471-1.934.282-6.273.282-6.273z" fill="#1E1E20"/></g><defs><clipPath id="clip0"><path fill="#fff" d="M59 3h41.857v44H59z"/></clipPath></defs></svg>