<svg version="1.1" id="Layer_1" xmlns="http://www.w3.org/2000/svg" x="0" y="0" viewBox="0 0 384.8 100.6" xml:space="preserve"><style>.st0{fill:#fff}</style><path class="st0" d="M90.7 99.8l-.8-.7H.8v1.5h89.1l.8-.8-.8.8h.8z"/><path class="st0" d="M89.9 0l-.8.8v99h1.6V.8l-.8-.8.8.8V0z"/><path class="st0" d="M0 .8l.8.8h89.1V0H.8L0 .8.8 0H0z"/><path class="st0" d="M.8 100.6l.8-.8V.8H0v99l.8.8-.8-.8v.8z"/><path class="st0" d="M90.7 99.8l-.8-.7H.8v1.5h89.1l.8-.8-.8.8h.8z"/><path class="st0" d="M89.9 0l-.8.8v99h1.6V.8l-.8-.8.8.8V0z"/><path class="st0" d="M0 .8l.8.8h89.1V0H.8L0 .8.8 0H0z"/><path class="st0" d="M.8 100.6l.8-.8V.8H0v99l.8.8-.8-.8v.8zM205.7 41.3l.5 5.9h-1.5c-.9-2-2.1-3.5-3.5-4.5-1.4-.9-3-1.4-5-1.4-2.9 0-5.4 1-7.3 3.2-1.9 2.2-2.9 4.9-2.9 8.2 0 3.3 1 6.1 3 8.3 2 2.3 4.5 3.4 7.5 3.4.4 0 .8-.1 1.1-.1.4-.1.7-.1 1.1-.2.7-.1 1.3-.3 1.9-.6.7-.3 1.3-.6 2-.9v-4.5c0-1.5-.3-2.6-.8-3.2-.5-.7-1.4-.9-2.7-.9h-1v-1.4h11.7V54h-.1c-1.2 0-1.9.3-2.4 1s-.8 1.7-.8 3.2V64l-.5.2c-2 .6-3.8 1-5.3 1.3-1.5.2-3 .3-4.4.3-4.5 0-8.1-1.2-10.9-3.5-2.8-2.3-4.2-5.3-4.2-9.1s1.5-7 4.5-9.6c3-2.6 6.6-3.9 11-3.9.4 0 .8.1 1.2.1.3 0 .7.1 1.1.1 1 .1 2 .3 3 .6 1.2.1 2.4.4 3.7.8m-50.9 22.6h.4c1.3.1 2.2-.3 2.7-.9.5-.7.8-1.8.8-3.3V45.9c0-1.5-.3-2.6-.8-3.3-.5-.6-1.4-.9-2.7-.9l-.4-.1v-1.3H176v5.5h-1.3c-.4-.9-.8-1.6-1.2-2.2-.5-.6-1-1-1.6-1.3-.5-.2-1.1-.3-1.7-.4-.6-.1-1.5-.1-2.7-.1h-4.9v9.6h4.9c1.8 0 3-.2 3.7-.7.7-.6 1.2-1.4 1.3-2.7l1.4-.1v8.9h-1.4c-.2-1.4-.7-2.3-1.4-2.9-.7-.6-1.9-.8-3.5-.8h-5v6c0 1.3.2 2.2.4 2.8.3.6.7 1.1 1.4 1.4.4.2.8.3 1.3.4.6.1 1.2.1 2.1.1 1.2 0 2.2-.1 2.9-.2.8-.1 1.5-.3 2.1-.7.7-.3 1.2-.7 1.7-1.2.4-.4.9-1 1.3-1.7.1-.1.2-.3.2-.4.1-.1.2-.3.3-.4h1.6l-1.6 6.1h-21.5v-1.4zm68.4-23.6v3.5l-.1-.2-4 9.9h4.1v2h-4.8l-1.3 3.4c-.1.2-.1.3-.1.4-.1.1-.1.2-.1.3-.1.2-.1.4-.1.6-.1.2-.1.4-.1.6 0 .9.3 1.6.8 2.1.6.5 1.3.8 2.3.9v1.3h-8.4v-1.4h.4c.2-.1.4-.1.5-.2.2-.1.3-.2.4-.3l.1-.1.2-.2c.1 0 .1-.1.1-.1l.2-.2.2-.2.3-.3c.2-.3.4-.7.6-1.2.2-.5.5-1.2.9-2.3l7-17.5-.6-1.2 1.5.4zm-102.7-5.4c.1.7.1 1.3.2 1.9.1.6.2 1.2.4 1.7.1.5.3.9.4 1.5.2.5.3 1 .6 1.6v.1c0 .1.1.1.1.1.1.1.1.3.2.4.1.2.1.3.2.4.3.8.7 1.6 1.1 2.5l1.7 3.4c.6 1.3 1.2 2.3 1.6 3.1.4.8.8 1.7 1.1 2.4.1.1.1.1.1.2s0 .1.1.2c.1.3.2.6.4.8.1.3.2.6.4.8.2.4.3.7.4.9.1.2.2.5.3.7 0 .1.1.1.1.1v.1c.1.2.1.3.2.5s.1.3.2.6c.1-.2.2-.4.2-.6.1-.1.1-.3.2-.4v-.1l.1-.1c.1-.3.3-.7.5-1.1.2-.3.4-.8.8-1.5.2-.3.3-.6.4-.8.2-.3.3-.6.4-.8.1 0 .1-.2.1-.3.1-.1.1-.2.2-.3.4-.7.8-1.5 1.2-2.3.4-.8.8-1.7 1.3-2.7.3-.8.7-1.5.9-2.2.3-.6.6-1.2.8-1.7.8-1.8 1.3-3.2 1.6-4.4.3-1.2.5-2.2.5-3.2v-.7c-.1-.1-.1-.2-.1-.4-.1-.2-.1-.3-.1-.6h9.1v1.7h-.4c-.9.1-1.8.3-2.4.9-.7.6-.9 1.3-.9 2.2 0 .3 0 .6.1.9.1.4.1.7.1 1.2l2.3 16.8c.2 1.8.7 3.2 1.4 4 .7.8 1.8 1.2 3.1 1.2h.2v1.7h-13.5v-1.7h.1c1.2 0 2.2-.3 2.8-1 .7-.7 1-1.5 1-2.7 0-.2-.1-.4-.1-.7 0-.2-.1-.5-.1-.7l-2.2-16.9h.1c-.1.3-.2.6-.3.8-.1.2-.1.4-.2.7-.1.1-.1.2-.1.3-.1.1-.1.2-.1.2-.1.2-.2.4-.3.7-.1.2-.2.5-.3.8-.2.5-.5 1.2-.8 1.9-.4.8-.8 1.7-1.3 2.8-.6 1.2-1.1 2.3-1.5 3.2-.4.9-.8 1.6-1.1 2.2-.6 1.2-1.1 2.1-1.4 2.8-.4.7-.6 1.1-.7 1.3-.2.4-.3.8-.5 1.2-.2.4-.4.9-.6 1.4-.2.4-.3.8-.4 1.1l-.3.9v.1l-.1.1c-.1.2-.1.4-.2.6-.1.2-.2.4-.2.6h-2.1c0-.1-.1-.2-.1-.3 0-.1 0-.3-.1-.4-.1-.4-.2-.9-.4-1.4-.2-.5-.5-1.3-.9-2.2-.4-.9-.7-1.6-.9-2.2-.3-.6-.5-1.1-.7-1.5-.1-.2-.3-.7-.7-1.4-.4-.8-.9-1.8-1.6-3.1-.1-.1-.2-.3-.2-.4-.1-.1-.2-.3-.2-.4-1.1-2.1-2-4.1-2.9-6-.8-1.9-1.4-3.5-1.8-4.8l-.1-.1-2.4 15.8c0 .2-.1.3-.1.4 0 .2 0 .3-.1.4-.1.3-.1.6-.1.9-.1.3-.1.5-.1.8 0 1.4.3 2.5 1.1 3.3.7.8 1.7 1.1 2.9 1.1h.2v1.7h-10.5v-1.7h.2c1.2 0 2.2-.3 2.8-1.1.6-.8 1.1-2 1.3-3.8l.3-2.1 2.2-13.8c.1-.7.2-1.2.2-1.6.1-.4.1-.8.1-1.2 0-1.2-.3-2.1-.8-2.6-.6-.6-1.4-.9-2.7-1.1v-1.7l9.1.1zm116.1 29c-.1 0-.1-.1-.2-.1-.3-.1-.5-.3-.8-.6-.2-.3-.4-.7-.7-1.1-.2-.4-.5-1.1-.8-1.8l-8.6-19.9h-2.4v3.5l4 9.7h-4v2h4.9l1.9 4.5c.1.3.2.5.2.7.1.2.1.4.1.6v.2c0 .7-.2 1.3-.8 1.7-.5.4-1.3.7-2.3.7v1.4h9.4l.1-1.5zm0-23.6V42c-.3-.2-.6-.2-.9-.3v-1.4h.9zm0 1.8c.2.1.3.2.4.3.4.3.7.8.9 1.3l.8 1.8 7.3 16.2.1.1.1.1c.3.8.6 1.6.9 2.3.2.7.4 1.3.4 1.6h1.9c.1-.4.3-1.1.7-1.8.3-.8.7-1.7 1.3-2.8l2.8-5.4 3.8 7.9c.1.2.2.3.2.4.1.1.1.3.2.4 0 .1 0 .2.1.3 0 .1.1.2.1.3 0 .1.1.2.1.3.1.1.1.2.1.3h1.7c.1-.3.2-.8.3-1.3.2-.5.4-1.1.6-1.6 0-.1.1-.2.1-.3.1-.1.1-.2.1-.3l6.9-15.9.7-1.6c.4-.9.9-1.6 1.4-2.1.5-.5 1.1-.8 1.7-.9v-1.4h-7.5v1.4c.8.1 1.4.3 1.8.8.4.5.6 1.1.6 1.9 0 .4-.1.8-.2 1.3-.2.5-.4 1.1-.7 1.8l-5.6 13c-.1-.2-.2-.4-.2-.6-.1-.2-.2-.3-.2-.5 0-.1 0-.1-.1-.1 0 0 0-.1-.1-.1-.1-.2-.1-.4-.2-.6-.1-.2-.2-.4-.3-.8l-3.2-6.5 3.2-6c.4-.7.8-1.3 1.1-1.8.3-.4.5-.8.8-1 .2-.3.5-.4.7-.6l.9-.3v-1.4h-6.7v1.4c.6.1 1.1.4 1.3.7.3.3.4.8.4 1.4v.3c-.1.1-.1.2-.1.3-.1.2-.1.4-.1.6-.1.2-.2.4-.2.5l-2.2 4.2-2.3-4.5c-.1-.3-.2-.6-.3-.8-.1-.3-.1-.6-.1-.8 0-.4.2-.9.4-1.2.3-.3.7-.6 1.3-.7v-1.4H246v1.4c.3 0 .7.1 1 .3.3.2.6.4.9.8l.6.9c.2.3.4.8.6 1.2l4.1 9-3.6 7.1-.1-.4-.7-1.7c-.1-.3-.3-.7-.4-1.1-.2-.4-.4-1-.7-1.6-.3-.7-.6-1.4-.8-1.9-.2-.6-.4-.9-.6-1.3l-3.3-7.1c-.2-.5-.4-.9-.5-1.2-.1-.3-.2-.6-.2-.9v-.2c0-.6.2-1 .5-1.4.3-.4.8-.6 1.4-.7V40h-7.8l.2 2.1zm0 23.2v-1.4c.2.1.6.1.9.1v1.3h-.9zm49.8-25.4v1.6h-.7c-1 0-2 .2-3 .6-.9.4-1.8 1.1-2.5 1.9-.9.9-1.5 1.9-1.9 3.2-.4 1.2-.6 2.6-.6 4.3v.8-.1c.2 3.7 1.2 6.6 2.8 8.8 1.5 2 3.4 3.2 5.8 3.3v1.5h-.5c-3.5 0-6.4-1.2-8.8-3.5-2.4-2.4-3.6-5.3-3.6-8.9v-.1c0-3.9 1.2-7.1 3.7-9.6 2.4-2.5 4.3-3.6 9.3-3.8m0 25.9v-1.5c.2.1.3.1.6.1 2.4 0 4.4-.9 5.8-2.8 1.4-1.8 2.2-4.2 2.2-7.2 0-1.7-.2-3.4-.7-5-.4-1.7-1.1-3.1-1.9-4.4-.7-1.1-1.7-1.9-2.9-2.6-.9-.5-2-.8-3-.9v-1.6h.1c3.7 0 6.8 1.3 9.2 3.8 2.4 2.4 3.7 5.6 3.7 9.3 0 3.6-1.3 6.6-3.9 9.1-2.6 2.3-5.6 3.6-9.2 3.7m29.5-25.5V42c-.2 0-.3-.1-.5-.1-.5-.1-1.2-.1-2.1-.1l-2.1-.1V52h2c1.2 0 2 0 2.5-.1h.1v3.9c-.3-.4-.6-.7-.8-1-.4-.5-.8-.9-1.1-1.1-.1-.1-.3-.2-.6-.2s-.7-.1-1.1-.1h-1.1v6.2c0 1.5.3 2.7.8 3.3.5.6 1.4.9 2.7.9l.4-.1v1.4h-11.4v-1.4h.3c1.3.1 2.2-.3 2.7-.9.5-.7.8-1.8.8-3.3V45.9c0-1.5-.3-2.6-.8-3.2-.5-.7-1.4-.9-2.7-.9l-.3-.1v-1.4h12.3zm26.8 0v1.4h-.8c-1.2 0-2 .3-2.6 1-.5.6-.7 1.7-.7 3.3v12.4c0 1.2.1 2.2.2 2.7.2.6.4 1.1.8 1.5.4.4.9.8 1.6 1 .6.2 1.4.3 2.3.3l2.7-.1c1.3.1 2.4-.1 3.2-.3.8-.3 1.6-.7 2.3-1.3l.3-.3.3-.3c.1-.1.2-.3.3-.4l.3-.3c.1-.1.1-.2.2-.2.1-.1.1-.2.1-.2.2-.2.3-.4.4-.6.1-.2.3-.4.4-.7h1.5l-1.5 6.1h-23.3V64h.7c1.3 0 2.2-.3 2.7-.9.5-.6.7-1.7.7-3.3V45.9c0-1.5-.2-2.6-.8-3.2-.5-.7-1.4-.9-2.6-.9l-.7-.1v-1.4h12zm-26.8 15.6V52c.5-.1 1-.1 1.4-.2.1-.1.2-.1.4-.2.1-.1.3-.1.4-.1.8-.3 1.4-.9 1.9-1.6.4-.7.7-1.5.7-2.5 0-1.1-.3-1.9-.7-2.8-.5-.8-1.2-1.4-2-1.8-.2-.1-.3-.2-.5-.3-.2-.1-.4-.1-.6-.2-.3-.1-.6-.2-.9-.2v-1.7c1.1.1 2 .1 2.7.2 1 .1 1.9.4 2.7.7 1.2.4 2.1 1.2 2.8 2.2.7 1 1 2.1 1 3.3 0 1.1-.3 2.2-.9 3.2-.6.9-1.5 1.7-2.5 2.2-.2.1-.4.2-.6.2-.2.1-.3.2-.5.2-.1.1-.3.1-.4.2-.2 0-.3.1-.4.1-.2 0-.4.1-.7.1-.3.1-.6.1-.9.2.1.1.2.1.2.1.1.1.1.1.2.1v.1c.1 0 .1 0 .2.1s.1.2.2.2c.2.2.4.5.7.8.3.3.7.8 1.1 1.3l3.3 3.7c.1.2.4.4.7.8l1.3 1.3.8.8.7.7c.2.1.3.2.6.3l.6.3c.1.1.2.1.2.1.1.1.1.1.2.1s.2 0 .2.1h.4v1.3H327c-.8 0-1.5-.1-2.2-.3-.6-.2-1.2-.5-1.7-1-.4-.3-.8-.7-1.2-1.2-.4-.5-.9-1.1-1.6-1.9l-3.2-4c-.6-.5-.9-.9-1.2-1.1m56.5-15.4v1.9c-.6-.2-1.2-.3-1.8-.4-.9-.1-2.2-.2-3.8-.2l-2.2-.1v18.7c.1.4.1.7.2 1 0 .1 0 .1.1.1 0 .1 0 .1.1.1.2.7.7 1.2 1.3 1.5.6.4 1.3.6 2.2.6h1.4c.9 0 1.6 0 2.2-.1.1 0 .3 0 .4-.1v1.6c-.9.1-1.9.1-3.3.1l-12.5-.1v-1.4h.7c1.3.1 2.1-.3 2.6-.9.6-.7.8-1.8.8-3.3V45.9c0-1.5-.2-2.6-.8-3.2-.5-.7-1.3-.9-2.6-.9l-.7-.1v-1.4h12.8c1.1 0 2.1.1 2.9.2m0 24.8v-1.6c.4-.1.9-.1 1.2-.2 2-.6 3.6-1.7 4.8-3.5 1.2-1.8 1.8-3.9 1.8-6.3 0-1.8-.3-3.4-.9-4.9-.6-1.4-1.4-2.7-2.6-3.8-.5-.4-1-.9-1.6-1.2-.6-.3-1.2-.7-1.8-.9-.3-.2-.6-.3-.9-.3v-1.9c.4 0 .8.1 1.1.1 1 .1 1.9.3 2.8.6h.2c.8.3 1.5.6 2.3 1 .7.4 1.4.9 2.1 1.5 1.3 1.2 2.3 2.5 3 4 .7 1.5 1.1 3.2 1.1 4.9 0 2.9-.9 5.5-2.7 7.7-1.8 2.3-4.1 3.8-7 4.5h-.3l-.1.1c-.7.2-1.6.3-2.4.4h-.1zM61 23.7l.7-2.4h2.1l5.7 20.9 5.2-14.8c1.3-3.2-1.5-4.3-3.9-4v-2.2h13.4v2.2c-2.9 0-6.1.8-7.1 3.9L71 47.1l7.7 25.8c1.1 4 3.2 4 5.7 4V79H67.8v-2.1c3.7 0 4.2-1.6 3.4-4.3l-4-14.2-6.2 20v-16l1 3.2 3.8-11.9L61 37.4V23.7zM46 22l.3-.7h2.1l6.6 22 6-19.6v13.7l-.8-2.5-4.1 12.2L61 62.4v16l-.2.6h-2.1l-6.1-21L46 78.2V62.8l1.2 3.5L51.3 54 46 37.1V22zm-15.7.2l.3-.9h1.6l7 21.5L46 22v15.1l-.8-2.6L40.7 47 46 62.8v15.4l-.3.8h-2.1l-6.8-21.6-6.5 20.1v-14l.7 2.4 4.4-12.4-5.1-15.2V22.2zM19.8 52.3l-7.7-25.4c-1.1-3.2-3.5-3.5-5.9-3.4v-2.2h17v2.1c-3.4-.1-4.9.9-4 3.6l4.5 14.4 6.6-19.2v16.1l-1-3.2-4.1 11.3 5.1 17.1v14l-.5 1.5h-2.1l-6.5-22.2L15 72.3C13.5 76 16.5 77 19.5 77v2H6.3v-2.1c3.2-.4 4.4-1.2 5.7-3.7l7.8-20.9z"/></svg>