<svg width="160" height="50" fill="none" xmlns="http://www.w3.org/2000/svg"><g clip-path="url(#clip0)"><path d="M35.666 20.525c1.239-1.836 3.259-3.099 5.439-3.374 2.8-.436 5.83.78 7.505 3.075-.643.597-1.308 1.17-1.951 1.767-.757-1.032-1.767-1.927-3.006-2.272-1.722-.482-3.742-.023-5.004 1.263-.964.986-1.606 2.363-1.56 3.763-.046 1.515.504 3.099 1.606 4.155.918.918 2.18 1.514 3.512 1.514 1.285.046 2.547-.482 3.511-1.285.505-.413.85-.964 1.193-1.492.689.528 1.4 1.01 2.043 1.584a8.18 8.18 0 01-5.279 3.557c-3.396.689-7.114-1.193-8.583-4.314-1.194-2.502-1.01-5.646.574-7.941z" fill="#fff"/><path d="M40.508 11.046c.895-.069 1.79-.046 2.685-.023 3.328.252 6.541 1.813 8.86 4.223a13.965 13.965 0 013.832 7.85c.46 3.166-.252 6.471-1.905 9.18-2.226 3.694-6.265 6.288-10.58 6.655-1.354.069-2.708.092-4.04-.16-3.235-.597-6.219-2.41-8.285-4.98-1.744-2.158-2.845-4.843-3.052-7.598a42.09 42.09 0 010-2.41c.252-3.258 1.744-6.403 4.062-8.698 2.227-2.249 5.256-3.718 8.423-4.04zm.207 1.652c-2.708.276-5.348 1.492-7.299 3.397-2.363 2.25-3.786 5.508-3.786 8.767a12.495 12.495 0 001.79 6.518c1.721 2.846 4.613 4.958 7.872 5.67 2.524.55 5.21.32 7.596-.712 2.984-1.285 5.44-3.81 6.61-6.84.85-2.157 1.033-4.544.62-6.816-.666-3.672-3.121-6.977-6.45-8.675-2.11-1.102-4.566-1.538-6.953-1.309zM82.302 16.072c.344-.069.757-.069 1.032.184.482.344.551 1.124.161 1.56-.482.551-1.538.437-1.836-.252-.298-.55.069-1.308.643-1.492z" fill="#EBA231"/><path d="M122.236 11.895a4.202 4.202 0 011.515 0c.023 3.167-.023 6.311.023 9.479.436-.345.78-.826 1.262-1.125 1.125-.734 2.548-.849 3.833-.55 1.01.229 1.882.963 2.295 1.904.367.85.39 1.79.39 2.685v6.518c-.551.023-1.079.046-1.629-.022v-7.161c-.046-.757-.276-1.584-.895-2.111-.735-.597-1.745-.643-2.663-.528-.78.114-1.537.573-1.951 1.262-.482.803-.573 1.767-.619 2.685-.023 1.951.023 3.925 0 5.875-.505 0-1.033.023-1.538 0-.023-6.288-.023-12.6-.023-18.91zM57.767 22.613c.918-1.652 2.685-2.823 4.567-2.938.643-.023 1.309-.046 1.951.115a6.088 6.088 0 013.282 2.02c-.367.367-.78.711-1.17 1.056-.46-.436-.872-.941-1.446-1.24-1.102-.665-2.479-.688-3.65-.206-.78.298-1.445.895-1.904 1.606-1.263 1.86-.804 4.66.964 6.036.78.62 1.767.987 2.754.918 1.4-.046 2.685-.849 3.465-2.02.46.23.873.552 1.217.942-1.102 1.468-2.823 2.524-4.682 2.501-2.617.138-5.256-1.721-5.876-4.291-.413-1.492-.275-3.145.528-4.499zM113.698 19.63c1.63-.253 3.374.16 4.659 1.193 1.4 1.079 2.318 2.823 2.25 4.613.068 1.584-.62 3.144-1.768 4.223-1.124 1.148-2.731 1.79-4.337 1.767-1.01.07-1.951-.367-2.892-.688-.574-.184-1.079-.505-1.607-.78 0 1.698.023 3.396 0 5.094-.436.023-.895.023-1.331 0 0-4.888-.023-9.777 0-14.665.459-.023.918-.023 1.377 0 .023.206.023.39.046.597 1.102-.735 2.341-1.125 3.603-1.355zm.436 1.422c-1.308.161-2.501 1.01-3.144 2.158-.574 1.01-.688 2.249-.459 3.374.436 1.882 2.226 3.465 4.2 3.305 1.492.091 2.846-.85 3.603-2.066a4.763 4.763 0 00.391-3.833c-.276-.964-.964-1.721-1.768-2.295-.826-.55-1.859-.803-2.823-.643zM73.97 19.744a5.89 5.89 0 014.407 1.331c1.079.896 1.86 2.204 2.043 3.604.046.849.091 1.698-.161 2.524-.459 1.56-1.63 2.846-3.052 3.58-1.17.574-2.525.78-3.81.505a6.05 6.05 0 01-3.741-2.547c-.987-1.538-1.194-3.557-.528-5.279.711-2.042 2.685-3.534 4.843-3.718zm-.32 1.492c-1.08.23-1.975.987-2.594 1.86-.643 1.009-.826 2.271-.574 3.419.275 1.377 1.262 2.616 2.57 3.121.758.298 1.63.413 2.41.207 1.446-.299 2.663-1.446 3.122-2.823.252-.689.23-1.423.183-2.158-.183-1.491-1.216-2.869-2.616-3.442-.758-.322-1.653-.276-2.502-.184zM88.269 20.364c1.124-.712 2.57-.85 3.856-.528.849.207 1.606.78 2.042 1.515.39.688.551 1.492.528 2.295-.023 2.456.023 4.911-.023 7.367h-1.515c-.045-2.34 0-4.682-.023-7.023-.046-.872-.252-1.859-1.01-2.41-.803-.55-1.858-.573-2.776-.367a2.696 2.696 0 00-1.905 1.607c-.253.62-.368 1.285-.413 1.927v6.197c-.505.023-1.033.023-1.538 0V20.09c.482-.023.964-.023 1.446 0 .023.504 0 .986.023 1.491.436-.39.78-.895 1.308-1.216zM99.24 19.721c1.078-.16 2.271-.046 3.189.597.551.39 1.056.941 1.217 1.63-.413.229-.826.504-1.262.688-.023 0-.092-.023-.115-.023-.23-.321-.39-.711-.712-.964a2.59 2.59 0 00-2.157-.459c-.712.184-1.331.85-1.24 1.607.024.642.529 1.124 1.056 1.377 1.263.62 2.754.826 3.787 1.813.758.734.804 1.859.712 2.846-.138 1.033-.918 1.859-1.836 2.272-.918.413-1.951.459-2.915.344-1.331-.183-2.593-1.079-3.007-2.387.482-.252.918-.665 1.446-.757.276.367.46.826.85 1.125.78.642 1.927.826 2.845.436a1.677 1.677 0 001.056-1.309c.115-.596-.229-1.147-.665-1.491-.896-.78-2.112-.987-3.145-1.561-.826-.436-1.652-1.102-1.836-2.066-.069-.596-.069-1.239.184-1.813.459-1.033 1.469-1.721 2.547-1.905zM81.866 20.111a17.657 17.657 0 011.56 0c.023 3.351 0 6.68 0 10.03 0 .298 0 .597-.023.895h-1.537c-.046-3.65 0-7.298 0-10.925zM106.033 28.833c.413-.184.941-.115 1.239.23.505.458.39 1.376-.183 1.72-.643.483-1.722-.068-1.699-.872-.046-.459.253-.872.643-1.078z" fill="#00BDFF"/><path d="M40.715 12.698c2.387-.23 4.842.207 6.954 1.332 3.328 1.698 5.784 4.98 6.449 8.675.413 2.272.23 4.659-.62 6.816-1.17 3.03-3.626 5.554-6.61 6.84-2.363 1.032-5.072 1.262-7.596.711-3.26-.711-6.174-2.8-7.872-5.669-1.17-1.973-1.813-4.246-1.768-6.518 0-3.282 1.4-6.518 3.787-8.767 1.951-1.928 4.568-3.121 7.276-3.42zm-5.05 7.827c-1.583 2.295-1.767 5.416-.55 7.918 1.469 3.12 5.187 5.003 8.583 4.314 2.135-.39 4.086-1.72 5.279-3.557-.643-.574-1.354-1.056-2.043-1.584-.344.528-.711 1.08-1.193 1.492-.964.826-2.226 1.331-3.511 1.285-1.309.023-2.594-.596-3.512-1.514-1.102-1.079-1.652-2.64-1.607-4.154-.045-1.4.574-2.777 1.561-3.764 1.262-1.286 3.282-1.745 5.003-1.263 1.263.345 2.25 1.24 3.007 2.273.643-.597 1.308-1.171 1.95-1.768-1.675-2.318-4.704-3.511-7.504-3.075-2.203.298-4.223 1.584-5.462 3.397z" fill="#1B5CC4"/></g><defs><clipPath id="clip0"><path fill="#fff" d="M28 11h103.531v28H28z"/></clipPath></defs></svg>