<svg width="185" height="70" viewBox="0 0 185 70" fill="none" xmlns="http://www.w3.org/2000/svg">
<rect x="52" y="1" width="81" height="68" rx="7" stroke="white" stroke-width="2"/>
<path d="M52 8C52 4.13401 55.134 1 59 1H126C129.866 1 133 4.13401 133 8V19H52V8Z" stroke="white" stroke-width="2"/>
<circle cx="63" cy="10" r="2" fill="white"/>
<circle cx="70" cy="10" r="2" fill="white"/>
<circle cx="77" cy="10" r="2" fill="white"/>
<path d="M84 10C84 8.89543 84.8954 8 86 8H125.5C126.605 8 127.5 8.89543 127.5 10C127.5 11.1046 126.605 12 125.5 12H86C84.8954 12 84 11.1046 84 10Z" fill="white"/>
<path d="M172.58 29L178 34.5M178 34.5L172.58 40M178 34.5H144" stroke="white" stroke-width="2" stroke-linecap="round" stroke-linejoin="round"/>
<path d="M12.4203 40L7 34.5M7 34.5L12.4203 29M7 34.5L41 34.5" stroke="white" stroke-width="2" stroke-linecap="round" stroke-linejoin="round"/>
<path d="M184 15V55" stroke="white" stroke-width="2" stroke-linecap="round" stroke-linejoin="round"/>
<path d="M1 15V55" stroke="white" stroke-width="2" stroke-linecap="round" stroke-linejoin="round"/>
</svg>
