<svg width="108" height="30" fill="none" xmlns="http://www.w3.org/2000/svg"><path d="M107.94 15.042c-.082-.295-.343-.79-1.172-.79-.397 0-.724.1-.97.296-.235.189-.451.53-.659 1.045-.729 1.866-1.498 3.343-2.286 4.392-.733.975-1.402 1.491-1.934 1.491-.493 0-.595-.875-.595-1.61 0-.232.013-.484.039-.749l.073-.736c.021-.2.068-.47.143-.8.078-.354.132-.609.165-.779.032-.163.102-.445.208-.838.106-.393.177-.66.206-.775.026-.104.103-.383.235-.851.13-.461.206-.724.225-.78l.614-2.184h1.177c.417 0 .788-.149 1.102-.443.32-.299.482-.705.482-1.206 0-.746-.47-1.174-1.289-1.174h-.659l.821-2.866c.155-.516.117-.992-.115-1.415-.309-.564-.757-.683-1.079-.683-.351 0-.673.131-.96.39a2.04 2.04 0 00-.58.945l-1.05 3.628h-.54c-.431 0-.803.126-1.104.373-.319.262-.48.647-.48 1.145 0 .404.126.726.375.96.242.23.55.346.914.346h.07l-.496 1.728c-.031.117-.12.428-.359 1.246-.11.377-.203.7-.276.958-.043.09-.083.181-.121.277-.821 1.81-1.801 3.266-2.913 4.33-1.082 1.037-2.236 1.562-3.426 1.562-.832 0-1.436-.235-1.849-.72-.418-.491-.631-1.177-.631-2.037 0-.765.09-1.558.268-2.356.076-.208.126-.41.15-.604.034-.123.067-.238.101-.35.342-1.119.852-2.098 1.517-2.91.638-.778 1.309-1.157 2.05-1.157.186 0 .318.065.424.21.126.173.187.379.187.63 0 .673-.299 1.41-.888 2.192l-.016.022c-.361.579-.537 1.05-.537 1.44 0 .43.14.769.416 1.008.264.23.596.346.988.346.475 0 .89-.248 1.234-.738.557-.802.981-1.564 1.262-2.264a6.212 6.212 0 00.432-2.317c0-2.194-1.08-3.353-3.125-3.353-1.25 0-2.464.502-3.608 1.492-1.124.971-2.038 2.276-2.72 3.88a12.98 12.98 0 00-.642 1.907c-.725 1.826-1.441 3.251-2.13 4.237-.658.943-1.28 1.442-1.797 1.442-.163 0-.66 0-.66-1.448 0-1.049.332-2.757.987-5.076.225-.794.192-1.369-.103-1.758-.242-.32-.643-.482-1.19-.482-.35 0-.649.11-.887.325-.22.2-.42.555-.614 1.088l-.006.02c-.698 2.395-1.468 4.253-2.29 5.521-.777 1.201-1.578 1.81-2.381 1.81-.111 0-.448 0-.75-.616-.234-.478-.353-1.095-.353-1.83 0-.893.11-1.764.328-2.589.038-.117.07-.23.095-.337.086-.283.184-.56.292-.826.47-1.159 1.16-2.119 2.05-2.852.873-.72 1.864-1.085 2.943-1.085.42 0 .783.038 1.08.113.35.09.515.174.59.23.157.114.334.218.527.308.215.1.446.152.686.152.415 0 .759-.144 1.02-.426a1.36 1.36 0 00.384-.945c0-.738-.432-1.313-1.282-1.71-.775-.362-1.654-.545-2.612-.545-1.673 0-3.22.487-4.6 1.447-1.37.955-2.458 2.266-3.231 3.896-.332.7-.596 1.44-.786 2.2-.688 1.699-1.37 3.035-2.024 3.973-.659.943-1.28 1.442-1.797 1.442-.279 0-.3-.744-.3-.972 0-.21.012-.435.039-.672.026-.24.071-.526.135-.85l.18-.909c.053-.264.142-.617.265-1.05.124-.435.226-.803.304-1.092.075-.28.198-.694.366-1.234.168-.545.297-.957.385-1.236.087-.279.23-.735.426-1.369.195-.628.332-1.065.418-1.335.112-.231.169-.463.169-.688 0-.237-.085-.458-.253-.657-.184-.216-.48-.32-.905-.32-.317 0-.65.102-.992.304-1.021.604-1.894.992-2.604 1.156.232-.734.346-1.313.346-1.761 0-1.127-.61-1.748-1.715-1.748-.819 0-1.501.296-2.03.879-.52.574-.783 1.307-.783 2.18 0 .954.158 1.672.484 2.183-.054.138-.148.383-.317.838a134.414 134.414 0 01-.944 2.456c-.064.13-.116.26-.155.39-.683 1.687-1.402 3.038-2.136 4.015-.733.975-1.402 1.491-1.935 1.491-.492 0-.595-.876-.595-1.61 0-.232.014-.484.04-.749l.073-.736c.02-.2.068-.469.142-.8.079-.357.133-.612.165-.778.022-.113.076-.35.208-.839.108-.4.177-.661.206-.775.025-.102.102-.381.235-.85.13-.461.206-.724.225-.782l.614-2.183h1.177c.417 0 .788-.149 1.102-.443.32-.3.482-.705.482-1.206 0-.746-.47-1.174-1.29-1.174h-.658l.821-2.866c.155-.516.117-.991-.115-1.415-.31-.564-.757-.683-1.079-.683-.35 0-.672.131-.96.39-.27.245-.464.562-.58.945l-1.05 3.628h-.54c-.431 0-.802.125-1.103.373-.32.262-.48.647-.48 1.145 0 .403.126.726.374.96.243.23.55.346.915.346h.07l-.497 1.728c-.032.117-.12.43-.358 1.246-.11.38-.204.701-.276.958-.043.09-.084.186-.125.286-.566 1.442-1.195 2.624-1.868 3.515-.465.614-.927 1.116-1.382 1.502.065-.162.13-.335.195-.522.233-.679.352-1.41.352-2.172 0-1.196-.24-2.325-.716-3.355-.448-.972-1.204-2.26-2.245-3.832.454-.818.684-1.557.684-2.2 0-.516-.192-.976-.57-1.367a1.89 1.89 0 00-1.408-.593c-.826 0-1.482.298-1.951.885-.453.566-.682 1.254-.682 2.042 0 .512.14 1.076.415 1.68-.124.309-.31.79-.566 1.462-.291.762-.547 1.429-.762 1.98l-.262.668c-.043.092-.084.19-.124.291a2.293 2.293 0 00-.174.436 9.885 9.885 0 01-1.177 2.072c-.553.743-1.15 1.353-1.773 1.813a13.68 13.68 0 01-1.486.97c.395-.426.79-.936 1.178-1.522.464-.7.846-1.563 1.137-2.565.29-1.001.438-2.075.438-3.19 0-1.552-.308-2.789-.914-3.677-.631-.926-1.546-1.395-2.718-1.395-.728 0-1.45.2-2.15.597a5.736 5.736 0 00-.856.593l2.216-7.61c.157-.508.11-.985-.142-1.416-.334-.561-.793-.68-1.12-.68-.346 0-.673.13-.97.385-.286.249-.479.565-.57.94l-4.16 14.639c-.252.565-.477 1.028-.67 1.378-.212.38-.481.75-.802 1.095a2.776 2.776 0 01-1.07.724c-.324.12-.7.208-1.123.261.242-1.159.61-2.754 1.094-4.751.544-2.248.991-4.201 1.33-5.809.345-1.647.514-2.833.514-3.626 0-1.214-.31-2.2-.923-2.932-.627-.747-1.533-1.125-2.693-1.125-.364 0-.707.026-1.017.078a3.488 3.488 0 00-.934.296 8.26 8.26 0 00-.783.426c-.257.159-.514.393-.763.696-.234.283-.447.559-.634.818-.195.269-.405.63-.624 1.076-.217.44-.413.851-.578 1.222-.172.382-.378.883-.613 1.49a76.451 76.451 0 00-.633 1.685c-.183.506-.415 1.157-.689 1.935a93.228 93.228 0 01-2.019 5.239c-1.398-.579-2.687-.872-3.837-.872-1.323 0-2.486.404-3.455 1.2l-.009.008c-.352.31-.53.707-.53 1.179 0 .366.118.695.348.979.242.299.562.457.926.457.358 0 .696-.135.999-.399.483-.404 1.088-.6 1.851-.6.747 0 1.594.177 2.523.527-.964 1.849-2.01 3.315-3.11 4.36-1.127 1.069-2.407 1.611-3.804 1.611a5.405 5.405 0 01-1.481-.201 4.593 4.593 0 01-1.36-.662 4.649 4.649 0 01-1.144-1.152c-.323-.461-.587-1.06-.784-1.781-.199-.729-.3-1.559-.3-2.467 0-1.246.142-2.412.423-3.467.28-1.051.667-1.962 1.15-2.706a7.854 7.854 0 011.726-1.908 7.105 7.105 0 012.16-1.17 7.813 7.813 0 012.46-.387c.59 0 1.197.125 1.802.37.57.232.938.558 1.127.997.113.29.261.522.439.694.205.198.506.298.893.298.47 0 .842-.147 1.103-.437.254-.28.383-.634.383-1.048 0-.25-.049-.476-.143-.67-.295-.678-.78-1.264-1.443-1.74a6.421 6.421 0 00-2.057-.998 8.171 8.171 0 00-2.136-.29c-1.064 0-2.12.163-3.14.482-1.021.32-2.005.822-2.924 1.494a11.415 11.415 0 00-2.433 2.433c-.7.947-1.262 2.108-1.669 3.451C.205 15.062 0 16.539 0 18.112c0 1.503.21 2.868.624 4.057.416 1.2.997 2.189 1.724 2.938a7.579 7.579 0 002.476 1.715c.919.392 1.913.59 2.954.59 2.097 0 3.96-.678 5.54-2.014 1.5-1.269 2.9-3.152 4.166-5.601l.47.241c.46.24.729.376.844.43.115.056.364.173.746.353.393.185.68.314.878.393.19.077.446.178.762.303.325.129.633.234.916.313.185.052.377.103.574.151-.105.72-.158 1.336-.158 1.832 0 1.729.157 3.078.466 4.012.327.987.899 1.666 1.7 2.018.238.105.474.157.7.157.287 0 .56-.082.81-.247.569-.373.688-.826.688-1.14 0-.367-.088-.658-.262-.862-.15-.176-.399-.36-.757-.564-.095-.06-.263-.252-.344-.867-.074-.555-.112-1.41-.112-2.54 0-.354.042-.859.126-1.503.925-.034 1.76-.186 2.49-.45l-.104.366c-.15.548-.136 1.027.04 1.425.138.31.456.682 1.19.682.479 0 .837-.123 1.067-.367.203-.216.367-.531.503-.965l.071-.234c.805 1.04 2.079 1.565 3.799 1.565.626 0 1.286-.059 1.96-.177.68-.118 1.457-.355 2.31-.706a12.156 12.156 0 002.438-1.353c.766-.547 1.542-1.303 2.304-2.243a13.752 13.752 0 001.937-3.259l.003-.009c.05-.128.091-.255.121-.378.163-.435.478-1.259.938-2.453.501.716.889 1.366 1.156 1.94.313.672.471 1.475.471 2.386 0 .753-.256 1.517-.76 2.27-.477.715-.929 1.076-1.342 1.076-.13 0-.299-.101-.487-.293-.31-.316-.62-.476-.923-.476-.434 0-.78.156-1.032.465-.236.29-.356.654-.356 1.086 0 .623.397 1.147 1.18 1.557.718.376 1.643.567 2.747.567.963 0 1.848-.114 2.633-.339.788-.226 1.588-.624 2.378-1.183a7.5 7.5 0 001.111-.975c.122.464.294.879.517 1.238.516.836 1.343 1.26 2.456 1.26 1.319 0 2.624-.704 3.88-2.092 1.22-1.347 2.326-3.248 3.284-5.649.06-.137.11-.275.149-.412a66.559 66.559 0 001.017-2.692h.027c.6 0 1.257-.093 1.96-.275a4.78 4.78 0 00-.042.165c-1.03 3.274-1.551 5.682-1.551 7.158 0 1.223.227 2.163.674 2.794.471.664 1.18 1.002 2.105 1.002 1.31 0 2.585-.697 3.787-2.07.138-.158.276-.326.415-.504.147.42.337.801.569 1.138.652.953 1.556 1.436 2.686 1.436 1.479 0 2.82-.753 3.995-2.238.192.624.512 1.125.954 1.495.59.492 1.328.743 2.195.743 1.31 0 2.582-.697 3.779-2.071.194-.223.388-.465.58-.725.207.506.485.955.829 1.341.86.965 2.113 1.455 3.727 1.455 1.857 0 3.599-.667 5.177-1.98.335-.278.665-.588.985-.926.12.634.322 1.186.608 1.647.516.836 1.343 1.26 2.456 1.26 1.319 0 2.624-.704 3.881-2.092 1.22-1.347 2.325-3.248 3.284-5.649.242-.564.304-1.074.183-1.517zm-70.22 1.414c-.309.97-.692 1.832-1.141 2.561-.447.725-.943 1.33-1.474 1.799-.497.438-.942.66-1.322.66-.403 0-.709-.124-.933-.38-.24-.271-.388-.663-.442-1.164a7.74 7.74 0 01.049-1.828c.09-.679.249-1.433.472-2.244.56-1.633 1.21-2.813 1.935-3.506.702-.672 1.42-1.013 2.132-1.013.293 0 1.185 0 1.185 2.315 0 .892-.156 1.835-.462 2.8zM26.07 5.335c0 .478-.168 1.498-.5 3.031a426.49 426.49 0 01-1.294 5.73 184.02 184.02 0 00-1.118 5.078 15.745 15.745 0 01-1.438-.494 33.427 33.427 0 01-1.557-.648c-.34-.155-.85-.402-1.518-.735.652-1.508 1.398-3.463 2.22-5.819.974-2.875 1.771-4.883 2.371-5.97.55-.999 1.177-1.505 1.863-1.505.31 0 .533.1.7.316.18.233.271.575.271 1.016z" fill="#fff"/></svg>